<mxfile host="app.diagrams.net" modified="2024-01-30T19:10:21.526Z" agent="Mozilla/5.0 (Windows NT 10.0; Win64; x64; rv:122.0) Gecko/20100101 Firefox/122.0" etag="px5ykPBHPIH_Fun0ZDer" version="23.0.2" type="device">
  <diagram name="PÃ¡gina-1" id="JDBHpTDPGidjxnMtyUe5">
    <mxGraphModel dx="1623" dy="477" grid="1" gridSize="10" guides="1" tooltips="1" connect="1" arrows="1" fold="1" page="1" pageScale="1" pageWidth="827" pageHeight="1169" math="0" shadow="0">
      <root>
        <mxCell id="0" />
        <mxCell id="1" parent="0" />
        <mxCell id="FyeHFPUxg4siq88-KsC0-85" value="" style="shape=cube;whiteSpace=wrap;html=1;boundedLbl=1;backgroundOutline=1;darkOpacity=0.05;darkOpacity2=0.1;rotation=90;" vertex="1" parent="1">
          <mxGeometry x="733.08" y="107.58" width="338" height="324.47" as="geometry" />
        </mxCell>
        <mxCell id="FyeHFPUxg4siq88-KsC0-64" value="" style="shape=mxgraph.cisco.routers.netflow_router;html=1;pointerEvents=1;dashed=0;fillColor=#b0e3e6;strokeColor=#0e8088;strokeWidth=2;verticalLabelPosition=bottom;verticalAlign=top;align=center;outlineConnect=0;" vertex="1" parent="1">
          <mxGeometry x="840" y="267.23" width="110" height="70.06" as="geometry" />
        </mxCell>
        <mxCell id="FyeHFPUxg4siq88-KsC0-63" value="" style="shape=mxgraph.cisco.routers.netflow_router;html=1;pointerEvents=1;dashed=0;fillColor=#d0cee2;strokeColor=#56517e;strokeWidth=2;verticalLabelPosition=bottom;verticalAlign=top;align=center;outlineConnect=0;" vertex="1" parent="1">
          <mxGeometry x="840" y="236.5" width="110" height="70.06" as="geometry" />
        </mxCell>
        <mxCell id="FyeHFPUxg4siq88-KsC0-62" value="" style="shape=mxgraph.cisco.routers.netflow_router;html=1;pointerEvents=1;dashed=0;fillColor=#bac8d3;strokeColor=#23445d;strokeWidth=2;verticalLabelPosition=bottom;verticalAlign=top;align=center;outlineConnect=0;" vertex="1" parent="1">
          <mxGeometry x="840" y="206.01" width="110" height="70.06" as="geometry" />
        </mxCell>
        <mxCell id="FyeHFPUxg4siq88-KsC0-25" value="" style="shape=cube;whiteSpace=wrap;html=1;boundedLbl=1;backgroundOutline=1;darkOpacity=0.05;darkOpacity2=0.1;rotation=90;" vertex="1" parent="1">
          <mxGeometry x="31.5" y="87.5" width="338" height="370" as="geometry" />
        </mxCell>
        <mxCell id="FyeHFPUxg4siq88-KsC0-12" value="" style="rounded=1;whiteSpace=wrap;html=1;strokeWidth=4;rotation=30;fillColor=#e1d5e7;strokeColor=#9673a6;" vertex="1" parent="1">
          <mxGeometry x="241" y="196.07000000000002" width="120" height="35.8" as="geometry" />
        </mxCell>
        <mxCell id="FyeHFPUxg4siq88-KsC0-10" value="" style="rounded=1;whiteSpace=wrap;html=1;strokeWidth=4;rotation=0;fillColor=#e1d5e7;strokeColor=#9673a6;" vertex="1" parent="1">
          <mxGeometry x="143" y="172" width="120" height="38" as="geometry" />
        </mxCell>
        <mxCell id="FyeHFPUxg4siq88-KsC0-9" value="" style="rounded=1;whiteSpace=wrap;html=1;strokeWidth=4;rotation=-30;fillColor=#e1d5e7;strokeColor=#9673a6;" vertex="1" parent="1">
          <mxGeometry x="43.5" y="196.87" width="120" height="38" as="geometry" />
        </mxCell>
        <mxCell id="FyeHFPUxg4siq88-KsC0-48" value="" style="rounded=1;whiteSpace=wrap;html=1;strokeWidth=4;rotation=-20;fillColor=#bac8d3;strokeColor=#23445d;" vertex="1" parent="1">
          <mxGeometry x="250.17" y="350.38" width="103.67" height="43.31" as="geometry" />
        </mxCell>
        <mxCell id="FyeHFPUxg4siq88-KsC0-43" value="" style="rounded=1;whiteSpace=wrap;html=1;strokeWidth=4;rotation=0;fillColor=#bac8d3;strokeColor=#23445d;" vertex="1" parent="1">
          <mxGeometry x="159" y="368" width="111" height="38" as="geometry" />
        </mxCell>
        <mxCell id="FyeHFPUxg4siq88-KsC0-45" value="" style="rounded=1;whiteSpace=wrap;html=1;strokeWidth=4;fillColor=#bac8d3;strokeColor=#23445d;" vertex="1" parent="1">
          <mxGeometry x="340" y="334" width="120" height="40" as="geometry" />
        </mxCell>
        <mxCell id="FyeHFPUxg4siq88-KsC0-20" value="" style="shape=or;whiteSpace=wrap;html=1;rotation=0;strokeWidth=4;fillColor=#e1d5e7;strokeColor=#9673a6;" vertex="1" parent="1">
          <mxGeometry x="148.00000000000003" y="172" width="15.27" height="41.07" as="geometry" />
        </mxCell>
        <mxCell id="FyeHFPUxg4siq88-KsC0-24" value="" style="shape=or;whiteSpace=wrap;html=1;rotation=0;strokeWidth=4;fillColor=#e1d5e7;strokeColor=#9673a6;" vertex="1" parent="1">
          <mxGeometry x="261" y="172" width="15.27" height="41.07" as="geometry" />
        </mxCell>
        <mxCell id="FyeHFPUxg4siq88-KsC0-28" value="" style="rounded=1;whiteSpace=wrap;html=1;strokeWidth=4;" vertex="1" parent="1">
          <mxGeometry x="-50" y="280" width="120" height="40" as="geometry" />
        </mxCell>
        <mxCell id="FyeHFPUxg4siq88-KsC0-29" value="" style="ellipse;whiteSpace=wrap;html=1;rotation=-90;strokeWidth=4;" vertex="1" parent="1">
          <mxGeometry x="-69.31" y="289.69" width="40" height="20.62" as="geometry" />
        </mxCell>
        <mxCell id="FyeHFPUxg4siq88-KsC0-19" value="" style="shape=or;whiteSpace=wrap;html=1;rotation=-25;strokeWidth=4;" vertex="1" parent="1">
          <mxGeometry x="59.37" y="275" width="15.27" height="41.07" as="geometry" />
        </mxCell>
        <mxCell id="FyeHFPUxg4siq88-KsC0-31" value="" style="endArrow=none;html=1;rounded=0;strokeWidth=4;" edge="1" parent="1">
          <mxGeometry width="50" height="50" relative="1" as="geometry">
            <mxPoint x="61.5" y="279" as="sourcePoint" />
            <mxPoint x="150" y="230" as="targetPoint" />
          </mxGeometry>
        </mxCell>
        <mxCell id="FyeHFPUxg4siq88-KsC0-32" value="" style="endArrow=none;html=1;rounded=0;strokeWidth=4;" edge="1" parent="1">
          <mxGeometry width="50" height="50" relative="1" as="geometry">
            <mxPoint x="150" y="230" as="sourcePoint" />
            <mxPoint x="260" y="230" as="targetPoint" />
          </mxGeometry>
        </mxCell>
        <mxCell id="FyeHFPUxg4siq88-KsC0-33" value="" style="endArrow=none;html=1;rounded=0;strokeWidth=4;entryX=0;entryY=0;entryDx=0;entryDy=0;" edge="1" parent="1" target="FyeHFPUxg4siq88-KsC0-34">
          <mxGeometry width="50" height="50" relative="1" as="geometry">
            <mxPoint x="260" y="229.94" as="sourcePoint" />
            <mxPoint x="334.36" y="273.94" as="targetPoint" />
          </mxGeometry>
        </mxCell>
        <mxCell id="FyeHFPUxg4siq88-KsC0-34" value="" style="rounded=1;whiteSpace=wrap;html=1;strokeWidth=4;" vertex="1" parent="1">
          <mxGeometry x="340" y="276.07" width="120" height="40" as="geometry" />
        </mxCell>
        <mxCell id="FyeHFPUxg4siq88-KsC0-35" value="" style="ellipse;whiteSpace=wrap;html=1;rotation=-90;strokeWidth=4;" vertex="1" parent="1">
          <mxGeometry x="437" y="285.94" width="40" height="20.62" as="geometry" />
        </mxCell>
        <mxCell id="FyeHFPUxg4siq88-KsC0-37" value="" style="shape=or;whiteSpace=wrap;html=1;rotation=0;strokeWidth=4;fillColor=#bac8d3;strokeColor=#23445d;" vertex="1" parent="1">
          <mxGeometry x="340.73" y="333.47" width="15.27" height="41.07" as="geometry" />
        </mxCell>
        <mxCell id="FyeHFPUxg4siq88-KsC0-38" value="" style="rounded=1;whiteSpace=wrap;html=1;strokeWidth=4;fillColor=#bac8d3;strokeColor=#23445d;" vertex="1" parent="1">
          <mxGeometry x="-50" y="340" width="120" height="40" as="geometry" />
        </mxCell>
        <mxCell id="FyeHFPUxg4siq88-KsC0-39" value="" style="ellipse;whiteSpace=wrap;html=1;rotation=-90;strokeWidth=4;fillColor=#bac8d3;strokeColor=#23445d;" vertex="1" parent="1">
          <mxGeometry x="-69.31" y="349.69" width="40" height="20.62" as="geometry" />
        </mxCell>
        <mxCell id="FyeHFPUxg4siq88-KsC0-40" value="" style="rounded=1;whiteSpace=wrap;html=1;strokeWidth=4;rotation=15;fillColor=#bac8d3;strokeColor=#23445d;" vertex="1" parent="1">
          <mxGeometry x="57.5" y="354.69" width="120" height="38" as="geometry" />
        </mxCell>
        <mxCell id="FyeHFPUxg4siq88-KsC0-41" value="" style="shape=or;whiteSpace=wrap;html=1;rotation=15;strokeWidth=4;fillColor=#bac8d3;strokeColor=#23445d;" vertex="1" parent="1">
          <mxGeometry x="61.369999999999976" y="340.93" width="15.27" height="41.07" as="geometry" />
        </mxCell>
        <mxCell id="FyeHFPUxg4siq88-KsC0-42" value="" style="endArrow=none;html=1;rounded=0;strokeWidth=4;" edge="1" parent="1">
          <mxGeometry width="50" height="50" relative="1" as="geometry">
            <mxPoint x="68.26999999999998" y="320" as="sourcePoint" />
            <mxPoint x="158.27" y="344.37" as="targetPoint" />
          </mxGeometry>
        </mxCell>
        <mxCell id="FyeHFPUxg4siq88-KsC0-44" value="" style="shape=or;whiteSpace=wrap;html=1;rotation=0;strokeWidth=4;fillColor=#bac8d3;strokeColor=#23445d;" vertex="1" parent="1">
          <mxGeometry x="166.00000000000003" y="366.47" width="15.27" height="41.07" as="geometry" />
        </mxCell>
        <mxCell id="FyeHFPUxg4siq88-KsC0-46" value="" style="ellipse;whiteSpace=wrap;html=1;rotation=-90;strokeWidth=4;fillColor=#bac8d3;strokeColor=#23445d;" vertex="1" parent="1">
          <mxGeometry x="439" y="343.94" width="40" height="20.62" as="geometry" />
        </mxCell>
        <mxCell id="FyeHFPUxg4siq88-KsC0-47" value="" style="shape=or;whiteSpace=wrap;html=1;rotation=0;strokeWidth=4;" vertex="1" parent="1">
          <mxGeometry x="342.73" y="275.47" width="15.27" height="41.07" as="geometry" />
        </mxCell>
        <mxCell id="FyeHFPUxg4siq88-KsC0-51" value="" style="shape=or;whiteSpace=wrap;html=1;rotation=0;strokeWidth=4;fillColor=#bac8d3;strokeColor=#23445d;" vertex="1" parent="1">
          <mxGeometry x="260" y="365" width="15.27" height="41.07" as="geometry" />
        </mxCell>
        <mxCell id="FyeHFPUxg4siq88-KsC0-52" value="" style="endArrow=none;html=1;rounded=0;strokeWidth=4;" edge="1" parent="1">
          <mxGeometry width="50" height="50" relative="1" as="geometry">
            <mxPoint x="154.81" y="343.94" as="sourcePoint" />
            <mxPoint x="260" y="344" as="targetPoint" />
          </mxGeometry>
        </mxCell>
        <mxCell id="FyeHFPUxg4siq88-KsC0-53" value="" style="endArrow=none;html=1;rounded=0;strokeWidth=4;entryX=-0.375;entryY=0.938;entryDx=0;entryDy=0;entryPerimeter=0;" edge="1" parent="1" target="FyeHFPUxg4siq88-KsC0-47">
          <mxGeometry width="50" height="50" relative="1" as="geometry">
            <mxPoint x="260" y="343.94" as="sourcePoint" />
            <mxPoint x="340" y="310.07" as="targetPoint" />
          </mxGeometry>
        </mxCell>
        <mxCell id="FyeHFPUxg4siq88-KsC0-6" value="" style="rounded=1;whiteSpace=wrap;html=1;strokeWidth=4;fillColor=#e1d5e7;strokeColor=#9673a6;" vertex="1" parent="1">
          <mxGeometry x="-50" y="220" width="120" height="40" as="geometry" />
        </mxCell>
        <mxCell id="FyeHFPUxg4siq88-KsC0-16" value="" style="rounded=1;whiteSpace=wrap;html=1;strokeWidth=4;fillColor=#e1d5e7;strokeColor=#9673a6;" vertex="1" parent="1">
          <mxGeometry x="340" y="217" width="120" height="40" as="geometry" />
        </mxCell>
        <mxCell id="FyeHFPUxg4siq88-KsC0-17" value="" style="ellipse;whiteSpace=wrap;html=1;rotation=-90;strokeWidth=4;fillColor=#e1d5e7;strokeColor=#9673a6;" vertex="1" parent="1">
          <mxGeometry x="-69.31" y="229.94" width="40" height="20.62" as="geometry" />
        </mxCell>
        <mxCell id="FyeHFPUxg4siq88-KsC0-30" value="" style="shape=or;whiteSpace=wrap;html=1;rotation=-15;strokeWidth=4;fillColor=#e1d5e7;strokeColor=#9673a6;" vertex="1" parent="1">
          <mxGeometry x="61.370000000000005" y="217" width="15.27" height="41.07" as="geometry" />
        </mxCell>
        <mxCell id="FyeHFPUxg4siq88-KsC0-36" value="" style="shape=or;whiteSpace=wrap;html=1;rotation=0;strokeWidth=4;fillColor=#e1d5e7;strokeColor=#9673a6;" vertex="1" parent="1">
          <mxGeometry x="340" y="217" width="15.27" height="41.07" as="geometry" />
        </mxCell>
        <mxCell id="FyeHFPUxg4siq88-KsC0-18" value="" style="ellipse;whiteSpace=wrap;html=1;rotation=-90;strokeWidth=4;fillColor=#e1d5e7;strokeColor=#9673a6;" vertex="1" parent="1">
          <mxGeometry x="436" y="225.94" width="40" height="20.62" as="geometry" />
        </mxCell>
        <mxCell id="FyeHFPUxg4siq88-KsC0-58" value="VRF - VIRTUAL ROUTER LAYER3" style="text;html=1;strokeColor=none;fillColor=none;align=center;verticalAlign=middle;whiteSpace=wrap;rounded=0;fontSize=16;fontStyle=1" vertex="1" parent="1">
          <mxGeometry x="765" y="457.5" width="260" height="30" as="geometry" />
        </mxCell>
        <mxCell id="FyeHFPUxg4siq88-KsC0-65" value="VRF" style="text;html=1;strokeColor=none;fillColor=none;align=center;verticalAlign=middle;whiteSpace=wrap;rounded=0;fontSize=16;fontStyle=1" vertex="1" parent="1">
          <mxGeometry x="811" y="246.23000000000002" width="170" height="30" as="geometry" />
        </mxCell>
        <mxCell id="FyeHFPUxg4siq88-KsC0-66" value="VRF" style="text;html=1;strokeColor=none;fillColor=none;align=center;verticalAlign=middle;whiteSpace=wrap;rounded=0;fontSize=16;fontStyle=1" vertex="1" parent="1">
          <mxGeometry x="810" y="275" width="170" height="30" as="geometry" />
        </mxCell>
        <mxCell id="FyeHFPUxg4siq88-KsC0-67" value="GLOBAL" style="text;html=1;strokeColor=none;fillColor=none;align=center;verticalAlign=middle;whiteSpace=wrap;rounded=0;fontSize=16;fontStyle=1" vertex="1" parent="1">
          <mxGeometry x="815" y="306.23" width="170" height="30" as="geometry" />
        </mxCell>
        <mxCell id="FyeHFPUxg4siq88-KsC0-68" value="" style="rounded=1;whiteSpace=wrap;html=1;strokeWidth=4;fillColor=#bac8d3;strokeColor=#23445d;" vertex="1" parent="1">
          <mxGeometry x="680" y="227.06" width="120" height="23.5" as="geometry" />
        </mxCell>
        <mxCell id="FyeHFPUxg4siq88-KsC0-71" value="" style="rounded=1;whiteSpace=wrap;html=1;strokeWidth=4;fillColor=#d0cee2;strokeColor=#56517e;" vertex="1" parent="1">
          <mxGeometry x="680" y="259.19" width="160" height="23.5" as="geometry" />
        </mxCell>
        <mxCell id="FyeHFPUxg4siq88-KsC0-72" value="" style="rounded=1;whiteSpace=wrap;html=1;strokeWidth=4;fillColor=#b0e3e6;strokeColor=#0e8088;" vertex="1" parent="1">
          <mxGeometry x="683" y="291" width="120" height="23.5" as="geometry" />
        </mxCell>
        <mxCell id="FyeHFPUxg4siq88-KsC0-73" value="" style="rounded=1;whiteSpace=wrap;html=1;strokeWidth=4;rotation=-5;fillColor=#bac8d3;strokeColor=#23445d;" vertex="1" parent="1">
          <mxGeometry x="790" y="224.78000000000003" width="50" height="23.5" as="geometry" />
        </mxCell>
        <mxCell id="FyeHFPUxg4siq88-KsC0-74" value="" style="rounded=1;whiteSpace=wrap;html=1;strokeWidth=4;rotation=15;fillColor=#b0e3e6;strokeColor=#0e8088;" vertex="1" parent="1">
          <mxGeometry x="800" y="297" width="50" height="23.5" as="geometry" />
        </mxCell>
        <mxCell id="FyeHFPUxg4siq88-KsC0-76" value="" style="curved=1;endArrow=none;html=1;rounded=0;endFill=0;fillColor=#fad9d5;strokeColor=#ae4132;strokeWidth=4;" edge="1" parent="1">
          <mxGeometry width="50" height="50" relative="1" as="geometry">
            <mxPoint x="716.2099999999999" y="225.16" as="sourcePoint" />
            <mxPoint x="713.79" y="316.16" as="targetPoint" />
            <Array as="points">
              <mxPoint x="716.2099999999999" y="196.16" />
              <mxPoint x="723.79" y="170.47" />
              <mxPoint x="743.79" y="170.47" />
              <mxPoint x="763.79" y="196.47" />
              <mxPoint x="766.2099999999999" y="315.16" />
              <mxPoint x="753.79" y="360.47" />
              <mxPoint x="733.79" y="370.47" />
              <mxPoint x="715.79" y="350.47" />
              <mxPoint x="716.2099999999999" y="315.66" />
            </Array>
          </mxGeometry>
        </mxCell>
        <mxCell id="FyeHFPUxg4siq88-KsC0-77" value="" style="curved=1;endArrow=none;html=1;rounded=0;endFill=0;fillColor=#fad9d5;strokeColor=#ae4132;strokeWidth=4;" edge="1" parent="1">
          <mxGeometry width="50" height="50" relative="1" as="geometry">
            <mxPoint x="403.58000000000004" y="211.15" as="sourcePoint" />
            <mxPoint x="403.58000000000004" y="371.15000000000003" as="targetPoint" />
            <Array as="points">
              <mxPoint x="403.58000000000004" y="158.15" />
              <mxPoint x="423.58000000000004" y="161.15" />
              <mxPoint x="433.58000000000004" y="183.94000000000003" />
              <mxPoint x="435.9999999999999" y="302.62999999999994" />
              <mxPoint x="433.58000000000004" y="423.24999999999994" />
              <mxPoint x="403.58000000000004" y="441.84999999999997" />
            </Array>
          </mxGeometry>
        </mxCell>
        <mxCell id="FyeHFPUxg4siq88-KsC0-78" value="" style="rounded=1;whiteSpace=wrap;html=1;strokeWidth=4;fillColor=#b0e3e6;strokeColor=#0e8088;" vertex="1" parent="1">
          <mxGeometry x="990" y="289.69" width="120" height="23.5" as="geometry" />
        </mxCell>
        <mxCell id="FyeHFPUxg4siq88-KsC0-79" value="" style="rounded=1;whiteSpace=wrap;html=1;strokeWidth=4;fillColor=#d0cee2;strokeColor=#56517e;" vertex="1" parent="1">
          <mxGeometry x="950" y="258.07" width="160" height="23.5" as="geometry" />
        </mxCell>
        <mxCell id="FyeHFPUxg4siq88-KsC0-80" value="" style="rounded=1;whiteSpace=wrap;html=1;strokeWidth=4;fillColor=#bac8d3;strokeColor=#23445d;" vertex="1" parent="1">
          <mxGeometry x="990" y="227.06" width="120" height="23.5" as="geometry" />
        </mxCell>
        <mxCell id="FyeHFPUxg4siq88-KsC0-81" value="" style="rounded=1;whiteSpace=wrap;html=1;strokeWidth=4;rotation=10;fillColor=#bac8d3;strokeColor=#23445d;" vertex="1" parent="1">
          <mxGeometry x="945" y="223.73000000000002" width="50" height="23.5" as="geometry" />
        </mxCell>
        <mxCell id="FyeHFPUxg4siq88-KsC0-82" value="" style="rounded=1;whiteSpace=wrap;html=1;strokeWidth=4;rotation=-15;fillColor=#b0e3e6;strokeColor=#0e8088;" vertex="1" parent="1">
          <mxGeometry x="945" y="293.03999999999996" width="50" height="23.5" as="geometry" />
        </mxCell>
        <mxCell id="FyeHFPUxg4siq88-KsC0-83" value="" style="curved=1;endArrow=none;html=1;rounded=0;endFill=0;fillColor=#fad9d5;strokeColor=#ae4132;strokeWidth=4;" edge="1" parent="1">
          <mxGeometry width="50" height="50" relative="1" as="geometry">
            <mxPoint x="1042.4199999999998" y="227.19" as="sourcePoint" />
            <mxPoint x="1040" y="318.19" as="targetPoint" />
            <Array as="points">
              <mxPoint x="1042.4199999999998" y="198.19" />
              <mxPoint x="1050" y="172.5" />
              <mxPoint x="1070" y="172.5" />
              <mxPoint x="1090" y="198.5" />
              <mxPoint x="1092.4199999999998" y="317.19" />
              <mxPoint x="1080" y="362.5" />
              <mxPoint x="1060" y="372.5" />
              <mxPoint x="1042" y="352.5" />
              <mxPoint x="1042.4199999999998" y="317.69" />
            </Array>
          </mxGeometry>
        </mxCell>
        <mxCell id="FyeHFPUxg4siq88-KsC0-84" value="" style="curved=1;endArrow=none;html=1;rounded=0;endFill=0;fillColor=#fad9d5;strokeColor=#ae4132;strokeWidth=4;" edge="1" parent="1">
          <mxGeometry width="50" height="50" relative="1" as="geometry">
            <mxPoint x="-29.309999999999945" y="219.9" as="sourcePoint" />
            <mxPoint x="-29.309999999999945" y="379.90000000000003" as="targetPoint" />
            <Array as="points">
              <mxPoint x="-29.309999999999945" y="166.9" />
              <mxPoint x="-9.309999999999945" y="169.9" />
              <mxPoint x="0.6900000000000546" y="192.69000000000003" />
              <mxPoint x="3.1099999999999" y="311.37999999999994" />
              <mxPoint x="0.6900000000000546" y="431.99999999999994" />
              <mxPoint x="-29.309999999999945" y="450.59999999999997" />
            </Array>
          </mxGeometry>
        </mxCell>
        <mxCell id="FyeHFPUxg4siq88-KsC0-86" value="" style="verticalLabelPosition=bottom;verticalAlign=top;html=1;shape=mxgraph.basic.x;fillColor=#fad9d5;strokeColor=#ae4132;" vertex="1" parent="1">
          <mxGeometry x="520" y="241" width="100" height="100" as="geometry" />
        </mxCell>
        <mxCell id="FyeHFPUxg4siq88-KsC0-87" value="&lt;div&gt;VLAN - VIRTUAL LAN LAYER 2&lt;/div&gt;" style="text;html=1;strokeColor=none;fillColor=none;align=center;verticalAlign=middle;whiteSpace=wrap;rounded=0;fontSize=16;fontStyle=1" vertex="1" parent="1">
          <mxGeometry x="83" y="467.5" width="260" height="30" as="geometry" />
        </mxCell>
      </root>
    </mxGraphModel>
  </diagram>
</mxfile>
